<svg width="48" height="48" viewBox="0 0 48 48" fill="none" xmlns="http://www.w3.org/2000/svg">
<path d="M43.2 24.45C43.2 22.9 43.04 21.41 42.77 20H24V28H34.73C34.28 30.53 32.87 32.68 30.73 34.11V39.16H37.23C41.01 35.68 43.2 30.54 43.2 24.45Z" fill="#4285F4"/>
<path d="M24 44C29.4 44 33.92 42.21 37.24 39.16L30.74 34.11C28.95 35.3 26.67 36 24 36C18.81 36 14.41 32.49 12.85 27.77H6.14999V32.97C9.42999 39.51 16.18 44 24 44Z" fill="#34A853"/>
<path d="M12.85 27.77C12.45 26.58 12.23 25.31 12.23 24C12.23 22.69 12.45 21.42 12.85 20.23V15.03H6.15C4.78 17.73 4 20.77 4 24C4 27.23 4.78 30.27 6.14 32.97L12.85 27.77Z" fill="#FABB05"/>
<path d="M24 12C26.93 12 29.55 13.01 31.62 14.98L37.38 9.22C33.92 5.98 29.39 4 24 4C16.18 4 9.43001 8.49 6.14001 15.03L12.84 20.23C14.41 15.51 18.81 12 24 12Z" fill="#E94235"/>
</svg>

