<?xml version="1.0" encoding="utf-8"?>
<!DOCTYPE svg PUBLIC "-//W3C//DTD SVG 1.0//EN" "http://www.w3.org/TR/2001/REC-SVG-20010904/DTD/svg10.dtd">
<svg version="1.0" xmlns="http://www.w3.org/2000/svg" width="640px" height="625px" viewBox="0 0 640 625" preserveAspectRatio="xMidYMid meet">
 <g fill="#ffb60f">
  <path d="M561 417.4 c-4.1 -0.8 -21 -3.9 -37.5 -6.9 -52.7 -9.7 -72 -13.7 -73.7 -15.2 -1.9 -1.7 -14.8 -23.7 -14.8 -25.3 0 -0.5 -0.4 -1 -0.9 -1 -0.5 0 -1.2 -0.8 -1.5 -1.7 -0.7 -1.8 -1.2 -2.7 -10.3 -17.8 -2.9 -4.8 -5.3 -9 -5.3 -9.5 0 -0.5 -0.6 -1.5 -1.3 -2.2 -1.6 -1.7 -12.7 -20.6 -12.7 -21.8 0 -0.4 -0.3 -1 -0.8 -1.2 -0.4 -0.1 -5.4 -8.4 -11.2 -18.3 -5.7 -9.9 -12.5 -21.4 -15.1 -25.5 -2.5 -4.1 -10.6 -17.6 -17.9 -30 -7.3 -12.4 -16.6 -28.1 -20.8 -35 -13.5 -22.3 -12.8 -20 -8.3 -28.3 7.6 -14.1 9.3 -17.2 10 -18.2 0.5 -0.5 2.7 -4.6 5.1 -9 2.3 -4.4 5.1 -9.1 6.1 -10.4 1.1 -1.3 1.9 -2.7 1.9 -3.2 0 -0.8 5.8 -11.1 8.9 -15.9 0.9 -1.4 3.2 -5.3 5.1 -8.7 9.6 -17 11.4 -20 13.3 -22 1.1 -1.3 2.4 -2.3 2.8 -2.3 0.8 0 3.5 4.4 8.4 13.5 1.8 3.3 4.5 8 6.1 10.5 3.8 5.9 4.7 7.3 9 15 2 3.6 4.2 7.2 4.9 8 0.7 0.8 2.3 3.5 3.6 6 1.3 2.5 2.9 5.2 3.6 6 0.7 0.9 2.5 3.8 4 6.6 1.5 2.7 5.1 8.7 7.8 13.2 2.8 4.5 5.5 9 6 10 0.6 0.9 3.3 5.4 6 10 2.8 4.6 5.5 9.1 6 10 10.1 17.2 13 22.1 14.6 24.4 1.1 1.5 1.9 3 1.9 3.4 0 0.3 0.8 1.8 1.9 3.2 1 1.5 2.8 4.3 3.9 6.2 4.3 7.5 14.5 24.6 16.1 27 1.5 2.1 4.1 6.5 9.6 15.9 5.3 9.1 10.1 16.9 11 18.1 0.7 0.8 2.3 3.5 3.6 6 1.3 2.5 3.3 5.9 4.5 7.5 1.2 1.7 2.8 4.4 3.6 6 1.6 3.2 12.5 21.6 16.3 27.5 1.2 1.9 3.8 6.2 5.6 9.5 1.9 3.3 3.9 6.7 4.4 7.7 0.6 0.9 2.5 4.3 4.4 7.5 1.9 3.2 4.8 8.1 6.6 10.8 1.8 2.8 3.8 6.2 4.6 7.7 2.7 5.1 10.6 18.6 14.2 24 0.9 1.4 1.7 3.8 1.7 5.2 0 1.4 0.5 2.6 1 2.6 0.6 0 1 0.5 1 1 0 1.4 -8 1.1 -17 -0.6z m-108 -24.9 c0 -0.3 -0.2 -0.5 -0.5 -0.5 -0.3 0 -0.5 0.2 -0.5 0.5 0 0.3 0.2 0.5 0.5 0.5 0.3 0 0.5 -0.2 0.5 -0.5z m-15 -26 c0 -0.3 -0.2 -0.5 -0.5 -0.5 -0.3 0 -0.5 0.2 -0.5 0.5 0 0.3 0.2 0.5 0.5 0.5 0.3 0 0.5 -0.2 0.5 -0.5z m-2 -2.9 c0 -0.3 -0.5 -0.8 -1.2 -1.2 -0.7 -0.4 -0.8 -0.3 -0.4 0.4 0.7 1.2 1.6 1.6 1.6 0.8z m-4 -7.1 c0 -0.3 -0.2 -0.5 -0.5 -0.5 -0.3 0 -0.5 0.2 -0.5 0.5 0 0.3 0.2 0.5 0.5 0.5 0.3 0 0.5 -0.2 0.5 -0.5z m-12 -20 c0 -0.3 -0.2 -0.5 -0.5 -0.5 -0.3 0 -0.5 0.2 -0.5 0.5 0 0.3 0.2 0.5 0.5 0.5 0.3 0 0.5 -0.2 0.5 -0.5z m-1 -2 c0 -0.3 -0.2 -0.5 -0.5 -0.5 -0.3 0 -0.5 0.2 -0.5 0.5 0 0.3 0.2 0.5 0.5 0.5 0.3 0 0.5 -0.2 0.5 -0.5z m-13 -22 c0 -0.3 -0.2 -0.5 -0.5 -0.5 -0.3 0 -0.5 0.2 -0.5 0.5 0 0.3 0.2 0.5 0.5 0.5 0.3 0 0.5 -0.2 0.5 -0.5z m-22 -37 c0 -0.3 -0.2 -0.5 -0.5 -0.5 -0.3 0 -0.5 0.2 -0.5 0.5 0 0.3 0.2 0.5 0.5 0.5 0.3 0 0.5 -0.2 0.5 -0.5z m-38 -64 c0 -0.3 -0.2 -0.5 -0.5 -0.5 -0.3 0 -0.5 0.2 -0.5 0.5 0 0.3 0.2 0.5 0.5 0.5 0.3 0 0.5 -0.2 0.5 -0.5z m-16 -27 c0 -0.3 -0.2 -0.5 -0.5 -0.5 -0.3 0 -0.5 0.2 -0.5 0.5 0 0.3 0.2 0.5 0.5 0.5 0.3 0 0.5 -0.2 0.5 -0.5z"/>
 </g>
 <g fill="#0e95d6">
  <path d="M366.8 570.2 c-1 -0.2 -1.8 -1 -1.8 -1.8 0 -1.1 1.7 -1.4 7.5 -1.4 6.5 0 7.5 0.2 7.5 1.8 0 1.4 -1 1.7 -5.8 1.7 -3.1 0.1 -6.5 -0.1 -7.4 -0.3z"/>
  <path d="M107.3 569.3 c-0.7 -0.2 -1.3 -0.9 -1.3 -1.5 0 -1 17.3 -31.8 29.8 -53.3 12.3 -21.1 14.1 -24.2 28.7 -50 8.1 -14.3 18.7 -32.7 23.5 -41 25.1 -43.4 56.1 -97.4 63.1 -110 1.5 -2.7 6.7 -11.9 11.6 -20.3 4.8 -8.4 12.6 -22 17.3 -30.2 4.6 -8.3 8.8 -15 9.2 -15 0.4 0 0.8 1.6 0.8 3.5 0 2.8 -0.4 3.5 -2 3.5 -1.5 0 -2 0.7 -2 2.9 0 3.9 -0.9 6.1 -2.6 6.1 -0.8 0 -1.4 1 -1.4 2.5 0 1.6 -0.6 2.5 -1.5 2.5 -0.9 0 -1.5 0.9 -1.5 2.4 0 1.4 -0.7 2.6 -1.5 2.8 -1.5 0.3 4.8 11.8 20 36.3 10.6 17.1 44.6 74.9 49.1 83.5 1.6 3 3.5 6.1 4.1 6.8 1.4 1.4 1.8 8.2 0.5 8.2 -0.4 0 -1.9 -2 -3.4 -4.5 -2.8 -4.5 -2.8 -4.5 -25.7 -4.5 -13.1 0 -25.3 0.5 -28.3 1.1 -6.7 1.4 -18.3 6.7 -22.6 10.4 -3.6 3 -9.1 10.8 -13.9 19.5 -1.7 3 -8.3 14.7 -14.8 26 -6.5 11.3 -16.1 28.2 -21.5 37.5 -5.3 9.4 -13.3 23.3 -17.7 31 -13.1 22.8 -14.1 24.6 -19.5 34.7 -5.3 9.8 -5.3 9.8 -40.3 9.7 -19.2 0 -35.6 -0.3 -36.2 -0.6z"/>
  <path d="M200 568 c0.6 -1.1 1.5 -2 2 -2 0.6 0 1 0.9 1 2 0 1.3 -0.7 2 -2 2 -1.8 0 -1.9 -0.3 -1 -2z"/>
  <path d="M202 564.5 c0 -1.3 12.5 -22.5 13.2 -22.5 0.4 0 0.8 1.6 0.8 3.5 0 2.8 -0.4 3.5 -2 3.5 -1.5 0 -2 0.7 -2 2.9 0 4.2 -1 6.1 -3.1 6.1 -1.5 0 -1.9 0.7 -1.9 3.5 0 3.1 -0.3 3.5 -2.5 3.5 -1.4 0 -2.5 -0.2 -2.5 -0.5z"/>
  <path d="M78.3 555.5 c-4.4 -3 -8.8 -6.4 -9.8 -7.5 -1.8 -2 -1.7 -2 1.9 -2 2.9 0 3.9 0.4 4.3 2 0.3 1.1 1.4 2 2.4 2 1.2 0 1.9 0.7 1.9 2 0 1.6 0.7 2 3 2 1.7 0 3 0.4 3 0.9 0 0.5 1.4 1.2 3.1 1.6 2.1 0.5 2.9 1.1 2.5 2.2 -0.3 0.8 -0.6 1.7 -0.6 1.9 0 1.7 -4.8 -0.4 -11.7 -5.1z"/>
  <path d="M91 551.5 c0 -2.8 0.4 -3.5 2 -3.5 1.6 0 2 -0.7 2 -3.5 0 -2.8 0.4 -3.5 2 -3.5 1.6 0 2 -0.7 2 -3.5 0 -2.4 0.5 -3.5 1.5 -3.5 0.8 0 1.5 -0.9 1.5 -1.9 0 -3.5 1.2 -5.1 3.6 -5.1 1.3 0 2.4 0.3 2.4 0.6 0 1.3 -15.5 27.4 -16.2 27.4 -0.5 0 -0.8 -1.6 -0.8 -3.5z"/>
  <path d="M60 538.9 c-4.4 -5.6 -10.4 -15.4 -11.5 -18.8 -0.5 -1.8 -0.2 -2.1 1.9 -2.1 2.4 0 2.6 0.4 2.6 4 0 3.3 0.3 4 2 4 1.1 0 2 0.7 2 1.5 0 0.8 0.5 1.5 1 1.5 0.6 0 1 0.7 1 1.5 0 0.8 0.5 1.5 1 1.5 0.6 0 1 0.8 1 1.9 0 1 0.9 2.1 2 2.4 1.5 0.4 2 1.4 2 4.1 0 2 -0.2 3.6 -0.5 3.6 -0.2 0 -2.3 -2.3 -4.5 -5.1z"/>
  <path d="M223 527.5 c0 -1.2 7.5 -13.5 8.2 -13.5 0.4 0 0.8 1.6 0.8 3.5 0 2.8 -0.4 3.5 -2 3.5 -1.6 0 -2 0.7 -2 3.5 0 3.1 -0.3 3.5 -2.5 3.5 -1.4 0 -2.5 -0.2 -2.5 -0.5z"/>
  <path d="M110 519.1 c0 -4.2 1 -6.1 3.1 -6.1 1.5 0 1.9 -0.7 1.9 -3.5 0 -2.4 0.5 -3.5 1.5 -3.5 0.8 0 1.5 -0.9 1.5 -1.9 0 -3.3 1.1 -5.1 3.1 -5.1 1.5 0 1.9 -0.7 1.9 -3.5 0 -2.8 0.4 -3.5 2 -3.5 1.6 0 2 -0.7 2 -3.5 0 -2.8 0.4 -3.5 2 -3.5 1.6 0 2 -0.7 2 -3.5 0 -2.4 0.5 -3.5 1.5 -3.5 0.8 0 1.5 -0.9 1.5 -2 0 -2.9 2.1 -7 3.7 -7 0.7 0 1.3 -1.1 1.3 -2.4 0 -1.4 0.6 -3.1 1.4 -3.8 0.7 -0.8 1.7 -2.4 2 -3.6 0.4 -1.2 1.1 -2.2 1.5 -2.2 0.4 0 1.3 -1.6 2 -3.5 0.7 -1.9 1.9 -3.5 2.7 -3.5 0.8 0 1.4 -0.9 1.4 -2 0 -2.9 2.1 -7 3.7 -7 0.7 0 1.3 -1.1 1.3 -2.5 0 -1.6 0.6 -2.5 1.5 -2.5 0.8 0 1.5 -0.9 1.5 -1.9 0 -3.3 1.1 -5.1 3.1 -5.1 1.5 0 1.9 -0.7 1.9 -3.5 0 -2.4 0.5 -3.5 1.5 -3.5 0.8 0 1.5 -0.9 1.5 -2 0 -2.9 2.1 -7 3.7 -7 0.7 0 1.3 -1.1 1.3 -2.4 0 -1.4 0.6 -3.1 1.4 -3.8 0.7 -0.8 1.7 -2.4 2 -3.6 0.4 -1.2 1.4 -2.2 2.2 -2.2 0.8 0 1.4 -0.9 1.4 -2 0 -2.4 2.1 -7 3.2 -7 0.4 0 0.8 -0.8 0.8 -1.7 0.1 -2.5 2.4 -5.3 4.4 -5.3 1.1 0 1.6 -0.9 1.6 -3 0 -3 1.8 -8 3 -8 0.3 0 1.2 -1.6 1.9 -3.5 0.7 -1.9 1.7 -3.5 2.2 -3.5 0.5 0 0.9 -0.5 0.9 -1.2 0 -1.2 14.8 -27.9 16 -28.8 0.3 -0.3 1.2 -2 1.9 -3.7 0.8 -1.8 1.7 -3.3 2.1 -3.3 0.4 0 1.1 -1.1 1.4 -2.4 0.3 -1.4 1.2 -3.1 1.9 -3.8 0.6 -0.8 3.2 -5.3 5.7 -10.1 2.5 -4.8 4.8 -8.7 5.3 -8.7 0.4 0 0.7 -0.5 0.7 -1.1 0 -1 1.7 -4.2 14.4 -26.7 2.5 -4.5 4.6 -8.9 4.6 -9.7 0 -0.8 0.5 -1.5 1 -1.5 0.6 0 1 -0.9 1 -1.9 0 -1 0.7 -2.1 1.5 -2.5 0.8 -0.3 1.5 -1.4 1.5 -2.5 0 -1.1 0.9 -2.2 1.9 -2.6 1 -0.3 2.2 -1.6 2.5 -3 0.3 -1.3 1.2 -3 1.9 -3.7 0.7 -0.7 1.8 -2.5 2.4 -4 0.9 -2 2 -2.8 3.7 -2.8 2.8 0 2.7 1.4 -0.4 6 -0.9 1.4 -4.3 7.2 -7.5 13 -3.2 5.8 -7 12.5 -8.5 15 -1.5 2.5 -6.5 11.3 -11.2 19.5 -57.3 101.2 -86.8 153.2 -93.7 165 -2.6 4.4 -11.4 19.8 -19.6 34.3 -8.3 14.4 -15.3 26.2 -15.7 26.2 -0.5 0 -0.8 -1.3 -0.8 -2.9z"/>
  <path d="M44.6 509.8 c-1 -3.8 -0.7 -4.8 1.4 -4.8 1.6 0 2 0.7 2 3.5 0 4 -2.4 4.9 -3.4 1.3z"/>
  <path d="M270.2 502.2 c-33.2 -0.2 -33.2 -0.2 -30.8 -4 2.5 -3.8 16 -27.3 29.8 -51.7 9.2 -16.2 12 -19.5 20.5 -23.7 8 -3.9 15.1 -4.7 43.1 -4.8 12.2 0 22.2 -0.3 22.2 -0.7 0 -0.5 -0.9 -2.3 -2 -4 -2 -3.3 -2 -3.3 0.8 -3.3 1.6 0 3.2 0.8 3.9 2 1.2 1.8 3 1.9 55.5 2.2 54.3 0.4 54.3 0.4 78.3 11.4 13.2 6 25.8 11.6 28 12.3 2.2 0.8 8.7 3.5 14.5 6.1 18.4 8.4 60.4 26.7 62.8 27.4 1.9 0.6 2.2 1.4 2.2 5.6 0 4.1 -0.6 5.6 -4 9.9 -2.3 2.8 -6 6.5 -8.3 8.2 -8.4 6.1 -9.1 6.2 -35.2 6.6 -34.5 0.4 -241.9 0.8 -281.3 0.5z"/>
  <path d="M42.6 499.8 c-1 -3.8 -0.7 -4.8 1.4 -4.8 1.6 0 2 0.7 2 3.5 0 4 -2.4 4.9 -3.4 1.3z"/>
  <path d="M42.5 472.3 c1 -6.7 4.8 -17.6 6.3 -18.1 1.7 -0.5 1.6 4.5 -0.2 9.6 -0.8 2.2 -1.8 6.1 -2.1 8.6 -0.6 3.7 -1.1 4.6 -2.7 4.6 -1.8 0 -2 -0.4 -1.3 -4.7z"/>
  <path d="M49 452.2 c0 -0.8 6.8 -12.8 19 -33.7 2.9 -4.9 9.5 -16.4 14.7 -25.5 18.3 -31.8 28.6 -49.6 34.8 -60 3.4 -5.8 18.4 -32.1 33.5 -58.5 15 -26.4 29.9 -52.5 33 -58 3.2 -5.4 6.2 -10.1 6.9 -10.3 0.7 -0.2 1.1 1 1.1 3.2 0 2 -0.4 3.6 -0.9 3.6 -0.5 0 -1.2 1.1 -1.5 2.5 -0.4 1.6 -1.3 2.5 -2.6 2.5 -1.6 0 -2 0.7 -2 3.4 0 1.9 -0.7 4.1 -1.5 5 -0.8 0.8 -1.5 2.2 -1.5 3 0 0.9 -0.4 1.6 -1 1.6 -0.5 0 -0.7 2.1 -0.3 5 0.6 5 0.6 5 -2.3 5 -2.7 0 -3.6 1.2 -12.4 16.7 -5.2 9.1 -10 17.1 -10.6 17.7 -0.6 0.7 -1.5 2.2 -1.8 3.4 -0.4 1.2 -1.2 2.2 -1.7 2.2 -0.5 0 -0.9 0.6 -0.9 1.4 0 1.4 -7.5 15.6 -8.8 16.6 -0.4 0.3 -2.3 3.5 -4.2 7.2 -1.9 3.8 -3.8 6.8 -4.2 6.8 -0.5 0 -0.8 0.6 -0.8 1.4 0 0.8 -0.6 2.1 -1.4 2.8 -0.7 0.8 -1.7 2.4 -2 3.6 -0.4 1.2 -1.4 2.2 -2.2 2.2 -0.8 0 -1.4 1 -1.4 2.4 0 1.4 -0.7 3.1 -1.5 4 -0.8 0.8 -1.5 1.8 -1.5 2.2 0 1 -10.1 18.7 -11 19.4 -0.4 0.3 -1 1.5 -1.4 2.8 -0.4 1.2 -1.1 2.2 -1.6 2.2 -0.4 0 -1.1 1.1 -1.4 2.5 -0.4 1.4 -1.3 2.5 -2.1 2.5 -0.9 0 -1.5 1 -1.5 2.4 0 1.4 -0.6 3.1 -1.4 3.8 -0.7 0.8 -1.7 2.4 -2 3.6 -0.4 1.2 -1.4 2.2 -2.2 2.2 -0.8 0 -1.4 1 -1.4 2.4 0 1.4 -0.7 3.1 -1.5 4 -0.8 0.8 -1.5 2 -1.5 2.6 0 1 -2.8 6 -4 7 -0.4 0.3 -1.2 2 -1.9 3.8 -0.8 1.7 -1.7 3.2 -2.2 3.2 -0.5 0 -0.9 0.7 -0.9 1.5 0 0.8 -0.9 1.5 -2 1.5 -1.6 0 -2 0.7 -2 3.5 0 2.4 -0.5 3.5 -1.5 3.5 -0.9 0 -1.5 0.9 -1.5 2.4 0 1.4 -0.6 3.1 -1.2 3.8 -0.7 0.8 -2.6 3.9 -4.3 7.1 -1.6 3.1 -3.5 5.7 -4.2 5.7 -0.7 0 -1.3 1.1 -1.3 2.4 0 1.4 -0.6 3.1 -1.4 3.8 -0.7 0.8 -1.7 2.4 -2 3.6 -0.4 1.2 -1.1 2.2 -1.6 2.2 -0.4 0 -1.1 1.1 -1.4 2.5 -0.4 1.4 -1.3 2.5 -2.1 2.5 -0.8 0 -1.5 0.9 -1.5 2 0 3.9 -3.2 9 -5.7 9 -1.3 0 -2.3 -0.4 -2.3 -0.8z"/>
  <path d="M291 243.5 c0 -1.2 7.5 -13.5 8.2 -13.5 0.4 0 0.8 1.6 0.8 3.5 0 2.8 -0.4 3.5 -2 3.5 -1.6 0 -2 0.7 -2 3.5 0 3.1 -0.3 3.5 -2.5 3.5 -1.4 0 -2.5 -0.2 -2.5 -0.5z"/>
  <path d="M294 195.5 c0 -3.2 0.2 -3.5 3 -3.5 2.9 0 2.9 0 0.9 3.5 -1.2 1.9 -2.5 3.5 -3 3.5 -0.5 0 -0.9 -1.6 -0.9 -3.5z"/>
  <path d="M317 198.4 c0 -1.2 3.4 -6.4 4.2 -6.4 0.4 0 0.8 1.6 0.8 3.5 0 3.1 -0.3 3.5 -2.5 3.5 -1.4 0 -2.5 -0.3 -2.5 -0.6z"/>
  <path d="M323 188.4 c0 -1.2 3.4 -6.4 4.2 -6.4 0.4 0 0.8 1.6 0.8 3.5 0 3.1 -0.3 3.5 -2.5 3.5 -1.4 0 -2.5 -0.3 -2.5 -0.6z"/>
 </g>
 <g fill="#b27f0b">
  <path d="M539 565.1 c0 -1.7 0.6 -2.1 3 -2.1 1.7 0 3 -0.4 3 -1 0 -0.5 1.6 -1 3.5 -1 1.9 0 3.5 0.5 3.5 1.1 0 1.1 -5.5 3.7 -10.1 4.6 -2.5 0.5 -2.9 0.2 -2.9 -1.6z"/>
  <path d="M562 555.1 c0 -2.4 0.4 -3.1 2 -3.1 1.1 0 2 -0.7 2 -1.5 0 -1.1 1.1 -1.5 3.6 -1.5 4.3 0 3.8 0.9 -3.1 5.9 -4.5 3.2 -4.5 3.2 -4.5 0.2z"/>
  <path d="M580 538.6 c0 -3.3 0.2 -3.6 3.1 -3.6 3 0 3 0 0.9 3 -3.1 4.4 -4 4.5 -4 0.6z"/>
  <path d="M586 529.5 c0 -3.1 0.3 -3.5 2.6 -3.5 1.4 0 2.4 0.3 2.2 0.8 -3.5 7.3 -4.8 8 -4.8 2.7z"/>
  <path d="M595 506.1 c0 -1 0.3 -3.9 0.6 -6.5 0.5 -3.7 1.1 -4.6 2.6 -4.6 2.1 0 2.1 0.5 0.2 10.3 -0.6 3 -3.4 3.7 -3.4 0.8z"/>
  <path d="M477.5 419.9 c-16.9 -1.2 -14.8 0.4 -26.3 -19.9 -5.6 -9.7 -10.2 -18.3 -10.2 -18.9 0 -0.6 -0.4 -1.1 -0.8 -1.1 -0.4 0 -2.1 -2.6 -3.7 -5.7 -1.7 -3.2 -3.3 -5.9 -3.7 -6.1 -0.5 -0.2 -0.8 -1 -0.8 -1.7 0 -0.7 -0.3 -1.5 -0.8 -1.7 -1.1 -0.4 -13.2 -21.2 -13.2 -22.6 0 -0.7 -0.4 -1.2 -0.9 -1.2 -0.5 0 -1.3 -1 -1.7 -2.2 -0.4 -1.3 -1 -2.5 -1.4 -2.8 -1.1 -0.8 -12 -19.7 -12 -20.8 0 -0.6 -0.4 -1.2 -0.8 -1.4 -1.1 -0.4 -20.2 -33.2 -20.2 -34.6 0 -0.6 -0.4 -1.2 -0.9 -1.4 -1.3 -0.4 -17.1 -26.9 -17.1 -28.5 0 -0.7 -0.3 -1.3 -0.8 -1.3 -0.4 0 -1.9 -2.1 -3.2 -4.7 -1.4 -2.6 -3.1 -5.4 -3.7 -6.1 -0.7 -0.7 -1.6 -2.4 -1.9 -3.8 -0.3 -1.3 -1 -2.4 -1.4 -2.4 -0.5 0 -1.2 -1 -1.6 -2.2 -0.3 -1.2 -1.3 -2.8 -2 -3.6 -0.8 -0.7 -1.4 -2 -1.4 -2.8 0 -0.8 -0.4 -1.4 -0.9 -1.4 -0.5 0 -1.5 -1.5 -2.2 -3.2 -0.7 -1.8 -1.9 -3.9 -2.6 -4.6 -0.7 -0.7 -1.3 -2 -1.3 -2.8 0 -0.8 -0.4 -1.4 -0.9 -1.4 -0.5 0 -1.3 -1 -1.7 -2.2 -0.3 -1.2 -1.3 -2.8 -2 -3.6 -0.8 -0.7 -1.4 -2 -1.4 -2.8 0 -0.8 -0.4 -1.4 -1 -1.4 -0.5 0 -1.2 -1.1 -1.6 -2.5 -0.3 -1.4 -1 -2.5 -1.5 -2.5 -0.5 0 -0.9 -0.7 -0.9 -1.5 0 -0.8 -0.4 -1.5 -0.9 -1.5 -0.5 0 -1.4 -1.3 -2.1 -2.9 -0.9 -2.3 -0.9 -3.4 0 -5.2 1.3 -2.3 1.3 -2.3 2.8 0.7 0.8 1.6 5.4 9.4 10.2 17.4 4.8 8 12.3 20.6 16.7 28 4.4 7.4 15.9 26.8 25.5 43 9.6 16.2 21.5 36.3 26.3 44.5 4.8 8.3 12.2 20.9 16.5 28 9.1 15.3 23.9 40.6 26.6 45.2 1 1.8 2.3 3.4 2.9 3.7 2.6 0.9 78.1 15.2 109.5 20.7 12 2 17 3.8 17 5.9 0 1.2 -86.6 1.1 -102.5 -0.1z"/>
  <path d="M316 158.5 c0 -3.1 0.3 -3.5 2.6 -3.5 1.4 0 2.4 0.3 2.2 0.8 -3.5 7.3 -4.8 8 -4.8 2.7z"/>
  <path d="M321 149.5 c0 -2.4 0.5 -3.5 1.5 -3.5 0.9 0 1.5 -0.9 1.5 -2.5 0 -2 0.5 -2.5 2.5 -2.5 1.4 0 2.5 0.3 2.5 0.6 0 1.2 -6.5 11.4 -7.2 11.4 -0.5 0 -0.8 -1.6 -0.8 -3.5z"/>
  <path d="M330 134.5 c0 -3.1 0.3 -3.5 2.6 -3.5 1.4 0 2.4 0.3 2.2 0.8 -3.5 7.3 -4.8 8 -4.8 2.7z"/>
  <path d="M335 125.5 c0 -2.8 0.4 -3.5 2 -3.5 1.6 0 2 -0.7 2 -3.5 0 -2.4 0.5 -3.5 1.5 -3.5 0.9 0 1.5 -0.9 1.5 -2.5 0 -1.6 0.6 -2.5 1.5 -2.5 0.9 0 1.5 -0.9 1.5 -2.5 0 -2 0.5 -2.5 2.5 -2.5 1.4 0 2.5 0.2 2.5 0.5 0 1.2 -13.5 23.5 -14.2 23.5 -0.5 0 -0.8 -1.6 -0.8 -3.5z"/>
  <path d="M350 99.5 c0 -1.9 0.5 -3.5 1 -3.5 0.6 0 1 -0.7 1 -1.5 0 -0.8 0.7 -1.5 1.5 -1.5 0.9 0 1.5 -0.9 1.5 -2.5 0 -1.6 0.6 -2.5 1.5 -2.5 0.8 0 1.5 -0.9 1.5 -1.9 0 -3.5 1.2 -5.1 3.6 -5.1 1.3 0 2.4 0.3 2.4 0.7 0 1.4 -12.4 21.3 -13.2 21.3 -0.4 0 -0.8 -1.6 -0.8 -3.5z"/>
  <path d="M357 69.5 c0 -0.9 -0.9 -1.5 -2.5 -1.5 -1.4 0 -2.5 -0.4 -2.5 -1 0 -0.5 -0.9 -1 -2 -1 -1.5 0 -2 -0.7 -2 -2.5 0 -2.2 0.2 -2.4 2.6 -1.5 3.8 1.5 11 5.9 12.4 7.5 1.1 1.3 0.7 1.5 -2.4 1.5 -2.5 0 -3.6 -0.4 -3.6 -1.5z"/>
  <path d="M297 59.6 c0 -0.9 1.9 -1.8 5 -2.5 6.7 -1.4 7 -1.4 7 0.8 0 1.4 -1 2 -3.7 2.5 -6 0.9 -8.3 0.7 -8.3 -0.8z"/>
  <path d="M330.8 60.3 c-2 -0.3 -2.8 -1 -2.8 -2.4 0 -2.2 0.3 -2.3 7 -0.8 3.1 0.7 5 1.6 5 2.5 0 1.4 -3 1.6 -9.2 0.7z"/>
 </g>
 <g fill="#0b77b6">
  <path d="M289.8 570.3 c-63.2 -0.2 -89.8 -0.6 -89.8 -1.4 0 -0.6 5.3 -10.4 11.7 -21.7 6.4 -11.4 13.9 -24.6 16.6 -29.4 2.7 -4.9 5.3 -8.8 5.8 -8.8 1 0 1.2 5 0.3 7.4 -0.3 0.9 -1.2 1.6 -2 1.6 -0.8 0 -1.4 0.9 -1.4 1.9 0 3 -1.1 5.1 -2.6 5.1 -0.8 0 -1.4 1 -1.4 2.4 0 1.4 -0.6 3.1 -1.4 3.8 -0.7 0.8 -1.7 2.4 -2 3.6 -0.4 1.2 -1.4 2.2 -2.2 2.2 -0.8 0 -1.4 0.9 -1.4 1.9 0 3.3 -1.1 5.1 -3.1 5.1 -1.4 0 -1.9 0.7 -1.9 2.9 0 4.2 -1 6.1 -3.1 6.1 -1.5 0 -1.9 0.7 -1.9 3.1 0 3.2 -1.5 6.9 -3.4 8.1 -0.7 0.5 -0.4 0.8 0.7 0.8 0.9 0 1.7 -0.4 1.7 -1 0 -0.5 1.8 -1 3.9 -1 2.2 0 4.2 -0.4 4.5 -0.9 0.8 -1.2 10.8 -3.3 33.1 -7.2 9.9 -1.7 22.7 -3.9 28.5 -5 35.9 -6.5 112.3 -18.9 116.8 -18.9 5.2 0 5.2 0 5.2 3.5 0 4.7 -17.5 36.6 -19.9 36.3 -0.9 -0.2 -42 -0.4 -91.3 -0.5z"/>
  <path d="M82.6 558.1 c-13.7 -8.1 -25.4 -20.8 -32.5 -35.6 -6.3 -12.8 -7.5 -18.8 -7.6 -36 0 -17.2 1.3 -23.7 7.1 -35 3.4 -6.7 23.2 -41.1 35.6 -61.8 3.2 -5.4 5.8 -10 5.8 -10.2 0 -0.2 6 -10.7 13.3 -23.2 7.3 -12.5 17.1 -29.3 21.7 -37.3 4.6 -8 10.2 -17.6 12.5 -21.5 2.3 -3.8 5.8 -9.9 7.7 -13.5 3.1 -5.9 8.9 -15.9 25 -43.4 3.2 -5.5 5.8 -10.6 5.8 -11.3 0 -0.7 0.5 -1.3 1 -1.3 0.6 0 1 -0.9 1 -2 0 -1.1 0.4 -2 0.8 -2 0.5 0 1.6 -1.7 2.6 -3.7 2.1 -4.9 4.9 -9.7 5.9 -10.1 0.4 -0.2 0.7 -0.8 0.7 -1.4 0 -1 14.2 -26.7 22.5 -40.8 1.8 -3 6 -10.3 9.4 -16.2 13.7 -24.1 18.7 -32.8 25.1 -43.8 3.7 -6.3 7.5 -13.1 8.5 -15 3.3 -6.6 9.8 -15.1 11.3 -14.8 0.8 0.2 2.7 2.6 4.2 5.3 1.5 2.8 5.5 9.3 8.8 14.5 5.3 8.2 23.4 38.5 34 56.8 1.8 3.1 3.7 5.8 4.2 6 0.4 0.2 -2.6 6 -6.7 13 -4.1 7 -8.4 14.3 -9.4 16.2 -1.1 1.9 -2.4 4.2 -2.9 5 -0.6 0.8 -5 8.5 -9.9 17 -4.9 8.5 -12.8 22.1 -17.5 30.1 -4.7 8 -8.6 14.9 -8.6 15.3 0 1.3 -2.7 3.5 -3.4 2.8 -0.4 -0.3 -0.4 0.1 -0.1 1.1 0.8 1.8 -1.8 5 -3 3.9 -0.5 -0.4 -0.5 -0.2 -0.2 0.5 0.8 1.3 -0.2 4.5 -1.2 3.8 -0.4 -0.2 -0.8 0.1 -0.8 0.8 0 0.7 -2 4.8 -4.5 9.2 -2.5 4.4 -9.8 17.5 -16.3 29 -6.5 11.6 -15.2 27.1 -19.5 34.5 -6.5 11.4 -18.1 31.9 -28.8 51 -2.7 4.9 -65.5 115.1 -83.7 146.9 -6.1 10.7 -11.5 19.6 -12.1 19.8 -0.5 0.1 -3.1 -1 -5.8 -2.6z m95.4 -320.6 c0 -0.3 -0.2 -0.5 -0.5 -0.5 -0.3 0 -0.5 0.2 -0.5 0.5 0 0.3 0.2 0.5 0.5 0.5 0.3 0 0.5 -0.2 0.5 -0.5z"/>
  <path d="M595.7 467.7 c-0.3 -3 -1.7 -8.7 -3.2 -12.8 -3.1 -8.5 -4.3 -14.9 -2.6 -14.9 2.6 0 8.2 16 9.6 27.4 0.7 5.1 0.6 5.6 -1.2 5.6 -1.7 0 -2.1 -0.9 -2.6 -5.3z"/>
  <path d="M513 439.6 c-1.9 -0.6 -13.6 -5.8 -26 -11.3 -12.4 -5.6 -24.2 -10.4 -26.2 -10.8 -2.4 -0.4 -3.8 -1.1 -3.8 -2 0 -2.1 6.9 -2 7.6 0 0.4 1 2 1.5 4.6 1.5 2.9 0 8.9 2.2 20.7 7.4 9.1 4.1 19 8.4 21.9 9.6 4.2 1.8 5.2 2.7 5.2 4.6 0 1.3 -0.1 2.4 -0.2 2.4 -0.2 -0.1 -1.9 -0.7 -3.8 -1.4z"/>
  <path d="M274 438.5 c0 -0.3 0.2 -0.5 0.5 -0.5 0.3 0 0.5 0.2 0.5 0.5 0 0.3 -0.2 0.5 -0.5 0.5 -0.3 0 -0.5 -0.2 -0.5 -0.5z"/>
  <path d="M584.2 436.5 c-0.7 -1.4 -1.2 -3.5 -1.2 -4.5 0 -1.1 -0.7 -2 -1.5 -2 -1 0 -1.5 -1.1 -1.5 -3.5 0 -2.8 -0.4 -3.5 -2 -3.5 -1.5 0 -2 -0.7 -2 -2.5 0 -4.9 2.8 -2.4 8.4 7.3 3.1 5.4 5.6 10.1 5.6 10.5 0 0.4 -1.1 0.7 -2.3 0.7 -1.6 0 -2.8 -0.9 -3.5 -2.5z"/>
  <path d="M276 435.5 c0 -0.3 0.2 -0.5 0.5 -0.5 0.3 0 0.5 0.2 0.5 0.5 0 0.3 -0.2 0.5 -0.5 0.5 -0.3 0 -0.5 -0.2 -0.5 -0.5z"/>
  <path d="M254 433.5 c0 -0.3 0.2 -0.5 0.5 -0.5 0.3 0 0.5 0.2 0.5 0.5 0 0.3 -0.2 0.5 -0.5 0.5 -0.3 0 -0.5 -0.2 -0.5 -0.5z"/>
  <path d="M278.5 432 c0.3 -0.5 0.8 -1 1.1 -1 0.3 0 0.2 0.5 -0.1 1 -0.3 0.6 -0.8 1 -1.1 1 -0.3 0 -0.2 -0.4 0.1 -1z"/>
  <path d="M256 430.5 c0 -0.3 0.2 -0.5 0.5 -0.5 0.3 0 0.5 0.2 0.5 0.5 0 0.3 -0.2 0.5 -0.5 0.5 -0.3 0 -0.5 -0.2 -0.5 -0.5z"/>
  <path d="M186 428 c0 -0.7 0.3 -1 0.7 -0.7 0.3 0.4 0.3 1 0 1.4 -0.4 0.3 -0.7 0 -0.7 -0.7z"/>
  <path d="M257 428.5 c0 -0.3 0.2 -0.5 0.5 -0.5 0.3 0 0.5 0.2 0.5 0.5 0 0.3 -0.2 0.5 -0.5 0.5 -0.3 0 -0.5 -0.2 -0.5 -0.5z"/>
  <path d="M282 428.6 c0 -0.2 0.8 -1 1.8 -1.7 1.5 -1.3 1.6 -1.2 0.3 0.4 -1.3 1.6 -2.1 2.1 -2.1 1.3z"/>
  <path d="M224 426 c0 -0.7 0.3 -1 0.7 -0.7 0.3 0.4 0.3 1 0 1.4 -0.4 0.3 -0.7 0 -0.7 -0.7z"/>
  <path d="M188 424.5 c0 -0.3 0.2 -0.5 0.5 -0.5 0.3 0 0.5 0.2 0.5 0.5 0 0.3 -0.2 0.5 -0.5 0.5 -0.3 0 -0.5 -0.2 -0.5 -0.5z"/>
  <path d="M288 424.5 c0 -0.3 0.2 -0.5 0.5 -0.5 0.3 0 0.5 0.2 0.5 0.5 0 0.3 -0.2 0.5 -0.5 0.5 -0.3 0 -0.5 -0.2 -0.5 -0.5z"/>
  <path d="M291.3 422.3 c0.4 -0.3 1 -0.3 1.4 0 0.3 0.4 0 0.7 -0.7 0.7 -0.7 0 -1 -0.3 -0.7 -0.7z"/>
  <path d="M190 421.5 c0 -0.3 0.2 -0.5 0.5 -0.5 0.3 0 0.5 0.2 0.5 0.5 0 0.3 -0.2 0.5 -0.5 0.5 -0.3 0 -0.5 -0.2 -0.5 -0.5z"/>
  <path d="M262.3 419.5 c0 -0.8 0.4 -1.2 0.9 -0.9 0.5 0.3 0.6 1 0.3 1.5 -0.9 1.3 -1.2 1.1 -1.2 -0.6z"/>
  <path d="M192 417.5 c0 -0.3 0.2 -0.5 0.5 -0.5 0.3 0 0.5 0.2 0.5 0.5 0 0.3 -0.2 0.5 -0.5 0.5 -0.3 0 -0.5 -0.2 -0.5 -0.5z"/>
  <path d="M264 417.1 c0 -0.5 0.7 -1.2 1.6 -1.5 1.4 -0.5 1.5 -0.4 0.4 0.9 -1.4 1.7 -2 1.9 -2 0.6z"/>
  <path d="M353.8 413.8 c-1.3 -1.8 -3.7 -5.5 -5.2 -8.3 -13.3 -23.5 -32.4 -56.2 -47.1 -80.5 -20.3 -33.3 -24.1 -39.8 -26.6 -44.5 -2.4 -4.5 -2.4 -4.6 -0.5 -7.8 1 -1.7 4.8 -8.4 8.4 -14.7 29.6 -52.4 42.3 -74 43.4 -74 0.5 0 0.8 1.6 0.8 3.5 0 2.4 -0.5 3.5 -1.5 3.5 -0.9 0 -1.5 0.9 -1.5 2.3 0 2 -3.3 8.5 -4.9 9.7 -0.4 0.3 -1.3 2 -2 3.8 -0.8 1.7 -1.7 3.2 -2.2 3.2 -0.5 0 -0.9 0.6 -0.9 1.3 0 1.3 -8.8 16.8 -10 17.7 -0.4 0.3 -1 1.5 -1.4 2.8 -0.4 1.2 -1.4 2.2 -2.2 2.2 -0.8 0 -1.4 0.9 -1.4 1.9 0 3 -1.1 5.1 -2.6 5.1 -0.8 0 -1.4 0.9 -1.4 2 0 2.9 -3.2 9 -4.7 9 -0.7 0 -1.3 0.9 -1.3 2 0 2.9 -2.1 7 -3.7 7 -0.7 0 -1.3 1.1 -1.3 2.5 0 1.6 -0.6 2.5 -1.5 2.5 -0.8 0 -1.5 0.9 -1.5 2 0 1.2 -0.7 3.4 -1.5 5 -1.5 3 -1.1 8 0.6 8 0.5 0 8.5 -15.3 17.8 -33.9 9.4 -18.7 17.6 -34.9 18.3 -36 0.9 -1.4 2.3 -2.1 4.5 -2.1 3.4 0 3.8 0.7 27.4 43 8.5 15.4 11.8 21.1 27.1 48 23.7 41.4 63.8 114.2 63.8 115.7 0 1.1 -7.4 1.3 -41.4 1.3 -41.4 0 -41.4 0 -43.8 -3.2z"/>
  <path d="M194.4 414.8 c-0.4 -0.7 -0.3 -0.8 0.4 -0.4 1.2 0.7 1.6 1.6 0.8 1.6 -0.3 0 -0.8 -0.5 -1.2 -1.2z"/>
  <path d="M197 414.5 c0 -0.3 0.2 -0.5 0.5 -0.5 0.3 0 0.5 0.2 0.5 0.5 0 0.3 -0.2 0.5 -0.5 0.5 -0.3 0 -0.5 -0.2 -0.5 -0.5z"/>
  <path d="M202 414.5 c0 -0.3 0.2 -0.5 0.5 -0.5 0.3 0 0.5 0.2 0.5 0.5 0 0.3 -0.2 0.5 -0.5 0.5 -0.3 0 -0.5 -0.2 -0.5 -0.5z"/>
  <path d="M196.6 409.6 c0.7 -1.9 2 -2.1 3 -0.3 0.4 0.6 0.4 0.9 -0.1 0.5 -0.4 -0.4 -1.4 -0.3 -2.2 0.4 -1.1 0.8 -1.2 0.7 -0.7 -0.6z"/>
  <path d="M198.6 405.8 c0.3 -0.5 1 -0.6 1.5 -0.3 1.3 0.9 1.1 1.2 -0.6 1.2 -0.8 0 -1.2 -0.4 -0.9 -0.9z"/>
  <path d="M200 403.5 c0 -0.3 0.2 -0.5 0.5 -0.5 0.3 0 0.5 0.2 0.5 0.5 0 0.3 -0.2 0.5 -0.5 0.5 -0.3 0 -0.5 -0.2 -0.5 -0.5z"/>
  <path d="M202 400.5 c0 -0.3 0.2 -0.5 0.5 -0.5 0.3 0 0.5 0.2 0.5 0.5 0 0.3 -0.2 0.5 -0.5 0.5 -0.3 0 -0.5 -0.2 -0.5 -0.5z"/>
  <path d="M204 396.5 c0 -0.3 0.2 -0.5 0.5 -0.5 0.3 0 0.5 0.2 0.5 0.5 0 0.3 -0.2 0.5 -0.5 0.5 -0.3 0 -0.5 -0.2 -0.5 -0.5z"/>
  <path d="M206 392.5 c0 -0.3 0.2 -0.5 0.5 -0.5 0.3 0 0.5 0.2 0.5 0.5 0 0.3 -0.2 0.5 -0.5 0.5 -0.3 0 -0.5 -0.2 -0.5 -0.5z"/>
  <path d="M208 390.5 c0 -0.3 0.2 -0.5 0.5 -0.5 0.3 0 0.5 0.2 0.5 0.5 0 0.3 -0.2 0.5 -0.5 0.5 -0.3 0 -0.5 -0.2 -0.5 -0.5z"/>
  <path d="M210 386.5 c0 -0.3 0.2 -0.5 0.5 -0.5 0.3 0 0.5 0.2 0.5 0.5 0 0.3 -0.2 0.5 -0.5 0.5 -0.3 0 -0.5 -0.2 -0.5 -0.5z"/>
  <path d="M214 379.5 c0 -0.3 0.2 -0.5 0.5 -0.5 0.3 0 0.5 0.2 0.5 0.5 0 0.3 -0.2 0.5 -0.5 0.5 -0.3 0 -0.5 -0.2 -0.5 -0.5z"/>
  <path d="M216 375.5 c0 -0.3 0.2 -0.5 0.5 -0.5 0.3 0 0.5 0.2 0.5 0.5 0 0.3 -0.2 0.5 -0.5 0.5 -0.3 0 -0.5 -0.2 -0.5 -0.5z"/>
  <path d="M433 366.5 c0 -4.3 1 -4.4 3.3 -0.6 2.2 3.8 2.2 4.1 -0.8 4.1 -2.2 0 -2.5 -0.4 -2.5 -3.5z"/>
  <path d="M421 346.5 c0 -4.3 1 -4.4 3.3 -0.6 2.2 3.8 2.2 4.1 -0.8 4.1 -2.2 0 -2.5 -0.4 -2.5 -3.5z"/>
  <path d="M380 276.5 c0 -4.3 1 -4.4 3.3 -0.6 2.2 3.8 2.2 4.1 -0.8 4.1 -2.2 0 -2.5 -0.4 -2.5 -3.5z"/>
  <path d="M342 212.5 c0 -4.3 1 -4.4 3.3 -0.6 2.2 3.8 2.2 4.1 -0.8 4.1 -2.2 0 -2.5 -0.4 -2.5 -3.5z"/>
  <path d="M330 192.5 c0 -4.3 1 -4.4 3.3 -0.6 2.2 3.8 2.2 4.1 -0.8 4.1 -2.2 0 -2.5 -0.4 -2.5 -3.5z"/>
 </g>
 <g fill="#c3272e">
  <path d="M378 570.1 c-2.3 -0.7 -2.3 -0.8 -0.5 -1.2 1.3 -0.4 5.1 -6.1 11.3 -17.2 5 -9.2 9.2 -16.9 9.2 -17.2 0 -0.3 -0.7 -0.5 -1.6 -0.5 -1.3 0 -1.3 -0.6 0.6 -3.7 5 -8.4 11.7 -20.1 14.5 -25.5 3 -5.7 3 -5.7 82 -6 79 -0.3 79 -0.3 84 -2.7 9.1 -4.5 21.8 -19.5 17.7 -20.9 -1.6 -0.5 1.1 -3.2 3.2 -3.2 1.4 0 1.6 1.7 1.6 11.8 0 25.2 -6.5 43.9 -20.7 59.3 -12.5 13.4 -24.2 20.2 -44.8 25.6 -5.2 1.4 -15.8 1.7 -80 1.9 -40.7 0.1 -75.1 -0.1 -76.5 -0.5z"/>
  <path d="M314.3 164.2 c-0.6 -0.4 -2.6 -3.3 -4.5 -6.4 -11.5 -19.8 -29 -49.1 -35.8 -59.8 -4.4 -6.9 -8 -12.9 -8 -13.4 0 -0.5 -0.7 -1.7 -1.5 -2.6 -2.1 -2.3 -1.3 -3.7 5.3 -9.3 24.6 -20.7 62.7 -22.7 90.7 -4.9 8.2 5.2 8.9 6 7 8.7 -2.5 3.6 -16.4 27.1 -41 69.5 -5.9 10.2 -10.8 18.6 -10.9 18.7 -0.1 0.1 -0.7 -0.1 -1.3 -0.5z"/>
 </g>
 <g fill="#104d7f">
  <path d="M200 569.2 c0 -0.7 12.4 -23.1 22.4 -40.7 5.1 -8.8 10.5 -18.5 12 -21.5 1.6 -3 3.3 -6 3.8 -6.7 0.8 -0.9 22.1 -1.2 91.5 -1.2 85.9 -0.1 90.5 0 89.1 1.7 -0.8 0.9 -3.3 5.1 -5.5 9.2 -2.3 4.1 -5.6 10.2 -7.5 13.5 -2 3.3 -6.5 11.3 -10.2 17.8 -3.7 6.4 -6.9 11.7 -7.2 11.7 -0.5 0 3.2 -6.9 7.8 -14.5 2.3 -3.9 2.3 -4.5 -0.4 -4.5 -2.2 0 -91.2 14.8 -113.8 18.9 -5.8 1.1 -18.6 3.3 -28.5 5 -22.3 3.9 -32.3 6 -33.1 7.2 -0.3 0.5 -2.3 0.9 -4.5 0.9 -2.1 0 -3.9 0.5 -3.9 1 0 0.6 -1.2 1.1 -2.7 1.2 -1.6 0.1 9.6 0.5 24.7 0.8 27.5 0.5 27.5 0.5 -0.8 0.8 -18.7 0.1 -28.1 -0.1 -27.7 -0.8 0.3 -0.5 0.1 -1 -0.4 -1 -0.6 0 -1.1 0.4 -1.1 0.9 0 0.6 -0.9 0.9 -2 0.8 -1.1 -0.1 -2 -0.3 -2 -0.5z"/>
  <path d="M262 569.5 c0 -0.3 0.2 -0.5 0.5 -0.5 0.3 0 0.5 0.2 0.5 0.5 0 0.3 -0.2 0.5 -0.5 0.5 -0.3 0 -0.5 -0.2 -0.5 -0.5z"/>
  <path d="M288 569.5 c0 -0.3 0.2 -0.5 0.5 -0.5 0.3 0 0.5 0.2 0.5 0.5 0 0.3 -0.2 0.5 -0.5 0.5 -0.3 0 -0.5 -0.2 -0.5 -0.5z"/>
  <path d="M290 569.5 c0 -0.3 0.2 -0.5 0.5 -0.5 0.3 0 0.5 0.2 0.5 0.5 0 0.3 -0.2 0.5 -0.5 0.5 -0.3 0 -0.5 -0.2 -0.5 -0.5z"/>
  <path d="M292 569.5 c0 -0.3 0.2 -0.5 0.5 -0.5 0.3 0 0.5 0.2 0.5 0.5 0 0.3 -0.2 0.5 -0.5 0.5 -0.3 0 -0.5 -0.2 -0.5 -0.5z"/>
  <path d="M294 569.5 c0 -0.3 0.2 -0.5 0.5 -0.5 0.3 0 0.5 0.2 0.5 0.5 0 0.3 -0.2 0.5 -0.5 0.5 -0.3 0 -0.5 -0.2 -0.5 -0.5z"/>
  <path d="M296 569.5 c0 -0.3 0.2 -0.5 0.5 -0.5 0.3 0 0.5 0.2 0.5 0.5 0 0.3 -0.2 0.5 -0.5 0.5 -0.3 0 -0.5 -0.2 -0.5 -0.5z"/>
  <path d="M298 569.5 c0 -0.3 0.2 -0.5 0.5 -0.5 0.3 0 0.5 0.2 0.5 0.5 0 0.3 -0.2 0.5 -0.5 0.5 -0.3 0 -0.5 -0.2 -0.5 -0.5z"/>
  <path d="M300 569.5 c0 -0.3 0.2 -0.5 0.5 -0.5 0.3 0 0.5 0.2 0.5 0.5 0 0.3 -0.2 0.5 -0.5 0.5 -0.3 0 -0.5 -0.2 -0.5 -0.5z"/>
  <path d="M302.8 569.3 c0.7 -0.3 1.6 -0.2 1.9 0.1 0.4 0.3 -0.2 0.6 -1.3 0.5 -1.1 0 -1.4 -0.3 -0.6 -0.6z"/>
  <path d="M306 569.5 c0 -0.3 0.2 -0.5 0.5 -0.5 0.3 0 0.5 0.2 0.5 0.5 0 0.3 -0.2 0.5 -0.5 0.5 -0.3 0 -0.5 -0.2 -0.5 -0.5z"/>
  <path d="M308 569.5 c0 -0.3 0.2 -0.5 0.5 -0.5 0.3 0 0.5 0.2 0.5 0.5 0 0.3 -0.2 0.5 -0.5 0.5 -0.3 0 -0.5 -0.2 -0.5 -0.5z"/>
  <path d="M310 569.5 c0 -0.3 0.2 -0.5 0.5 -0.5 0.3 0 0.5 0.2 0.5 0.5 0 0.3 -0.2 0.5 -0.5 0.5 -0.3 0 -0.5 -0.2 -0.5 -0.5z"/>
  <path d="M323.8 569.3 c6.8 -0.2 17.6 -0.2 24 0 6.4 0.1 0.9 0.3 -12.3 0.3 -13.2 0 -18.5 -0.2 -11.7 -0.3z"/>
  <path d="M360 569.5 c0 -0.3 0.2 -0.5 0.5 -0.5 0.3 0 0.5 0.2 0.5 0.5 0 0.3 -0.2 0.5 -0.5 0.5 -0.3 0 -0.5 -0.2 -0.5 -0.5z"/>
  <path d="M376.5 569.3 c1.1 -0.3 2.6 -1 3.3 -1.5 0.8 -0.7 1.2 -0.7 1.2 0 0 1.2 -2.5 2.2 -4.8 2.1 -1.3 -0.1 -1.2 -0.3 0.3 -0.6z"/>
  <path d="M384.1 560 c1.8 -3.3 3.4 -5.9 3.5 -5.7 0.5 0.4 -5.6 11.7 -6.2 11.7 -0.3 0 0.9 -2.7 2.7 -6z"/>
  <path d="M90 557.5 c0 -0.3 0.2 -0.5 0.5 -0.5 0.3 0 0.5 0.2 0.5 0.5 0 0.3 -0.2 0.5 -0.5 0.5 -0.3 0 -0.5 -0.2 -0.5 -0.5z"/>
  <path d="M79 555.5 c0 -0.3 0.2 -0.5 0.5 -0.5 0.3 0 0.5 0.2 0.5 0.5 0 0.3 -0.2 0.5 -0.5 0.5 -0.3 0 -0.5 -0.2 -0.5 -0.5z"/>
  <path d="M91 555.5 c0 -0.3 0.2 -0.5 0.5 -0.5 0.3 0 0.5 0.2 0.5 0.5 0 0.3 -0.2 0.5 -0.5 0.5 -0.3 0 -0.5 -0.2 -0.5 -0.5z"/>
  <path d="M74 551.5 c0 -0.3 0.2 -0.5 0.5 -0.5 0.3 0 0.5 0.2 0.5 0.5 0 0.3 -0.2 0.5 -0.5 0.5 -0.3 0 -0.5 -0.2 -0.5 -0.5z"/>
  <path d="M93 551.5 c0 -0.3 0.2 -0.5 0.5 -0.5 0.3 0 0.5 0.2 0.5 0.5 0 0.3 -0.2 0.5 -0.5 0.5 -0.3 0 -0.5 -0.2 -0.5 -0.5z"/>
  <path d="M94 549.5 c0 -0.3 0.2 -0.5 0.5 -0.5 0.3 0 0.5 0.2 0.5 0.5 0 0.3 -0.2 0.5 -0.5 0.5 -0.3 0 -0.5 -0.2 -0.5 -0.5z"/>
  <path d="M97 544.5 c0 -0.3 0.2 -0.5 0.5 -0.5 0.3 0 0.5 0.2 0.5 0.5 0 0.3 -0.2 0.5 -0.5 0.5 -0.3 0 -0.5 -0.2 -0.5 -0.5z"/>
  <path d="M100 539.5 c0 -0.3 0.2 -0.5 0.5 -0.5 0.3 0 0.5 0.2 0.5 0.5 0 0.3 -0.2 0.5 -0.5 0.5 -0.3 0 -0.5 -0.2 -0.5 -0.5z"/>
  <path d="M105 530.5 c0 -0.3 0.2 -0.5 0.5 -0.5 0.3 0 0.5 0.2 0.5 0.5 0 0.3 -0.2 0.5 -0.5 0.5 -0.3 0 -0.5 -0.2 -0.5 -0.5z"/>
  <path d="M108 525.5 c0 -0.3 0.2 -0.5 0.5 -0.5 0.3 0 0.5 0.2 0.5 0.5 0 0.3 -0.2 0.5 -0.5 0.5 -0.3 0 -0.5 -0.2 -0.5 -0.5z"/>
  <path d="M47 515.5 c0 -0.3 0.2 -0.5 0.5 -0.5 0.3 0 0.5 0.2 0.5 0.5 0 0.3 -0.2 0.5 -0.5 0.5 -0.3 0 -0.5 -0.2 -0.5 -0.5z"/>
  <path d="M46 511.5 c0 -0.3 0.2 -0.5 0.5 -0.5 0.3 0 0.5 0.2 0.5 0.5 0 0.3 -0.2 0.5 -0.5 0.5 -0.3 0 -0.5 -0.2 -0.5 -0.5z"/>
  <path d="M568.8 498.3 c0.7 -0.3 1.6 -0.2 1.9 0.1 0.4 0.3 -0.2 0.6 -1.3 0.5 -1.1 0 -1.4 -0.3 -0.6 -0.6z"/>
  <path d="M575 497 c0.8 -0.5 2 -1 2.5 -1 0.6 0 0.3 0.5 -0.5 1 -0.8 0.5 -1.9 1 -2.5 1 -0.5 0 -0.3 -0.5 0.5 -1z"/>
  <path d="M579.5 495 c0.3 -0.5 0.8 -1 1.1 -1 0.3 0 0.2 0.5 -0.1 1 -0.3 0.6 -0.8 1 -1.1 1 -0.3 0 -0.2 -0.4 0.1 -1z"/>
  <path d="M584.7 491.6 c1.7 -1.5 4.8 -4.5 6.9 -6.9 2 -2.3 3.1 -3.3 2.3 -2.2 -2.2 3.4 -8.3 9.6 -10.4 10.7 -1.1 0.5 -0.6 -0.2 1.2 -1.6z"/>
  <path d="M127 492.5 c0 -0.3 0.2 -0.5 0.5 -0.5 0.3 0 0.5 0.2 0.5 0.5 0 0.3 -0.2 0.5 -0.5 0.5 -0.3 0 -0.5 -0.2 -0.5 -0.5z"/>
  <path d="M595 479.5 c0 -0.3 0.2 -0.5 0.5 -0.5 0.3 0 0.5 0.2 0.5 0.5 0 0.3 -0.2 0.5 -0.5 0.5 -0.3 0 -0.5 -0.2 -0.5 -0.5z"/>
  <path d="M596 476.5 c0 -0.7 -1 -1.7 -2.2 -2.1 -1.3 -0.3 -13.5 -5.6 -27.3 -11.6 -30.7 -13.5 -37.3 -16.4 -80.5 -36 -20.5 -9.3 -20.5 -9.3 -35.5 -9.8 -15 -0.5 -15 -0.5 -40.2 -46 -13.9 -25 -31 -55.6 -38 -67.9 -15.2 -26.7 -20.2 -35.5 -27.2 -48.1 -2.9 -5.2 -9.6 -17.1 -14.8 -26.3 -9.6 -16.9 -9.6 -16.9 -11.2 -14.4 -0.9 1.4 -9.7 18.8 -19.6 38.6 -9.9 19.9 -18.3 36.1 -18.7 36.1 -0.4 0 -2.3 -2.9 -4.3 -6.4 -3.6 -6.5 -3.6 -6.5 5.6 -22.8 8.8 -15.6 12.9 -22.8 28.3 -49.3 3.8 -6.6 9 -15.7 11.5 -20.2 2.5 -4.6 4.8 -8.3 5.1 -8.3 0.3 0.1 2.1 2.9 4.1 6.3 5.4 9.3 37.6 63.6 49.9 84.2 5.9 9.9 17.8 30.2 26.6 45 8.7 14.9 20.3 34.7 25.9 44 5.5 9.4 15 25.6 21 36.1 10.9 19.1 10.9 19.1 29.4 19.7 10.2 0.4 35.7 0.7 56.7 0.7 38 0 38 0 44.2 11 9.1 16.1 12.9 26.6 14.7 40.1 0.3 2.5 0.3 5.3 0 6.1 -0.9 2.2 -3.5 3.1 -3.5 1.3z"/>
  <path d="M46 459.5 c0 -0.3 0.2 -0.5 0.5 -0.5 0.3 0 0.5 0.2 0.5 0.5 0 0.3 -0.2 0.5 -0.5 0.5 -0.3 0 -0.5 -0.2 -0.5 -0.5z"/>
  <path d="M272 95.5 c0 -0.3 0.2 -0.5 0.5 -0.5 0.3 0 0.5 0.2 0.5 0.5 0 0.3 -0.2 0.5 -0.5 0.5 -0.3 0 -0.5 -0.2 -0.5 -0.5z"/>
  <path d="M270 92.5 c0 -0.3 0.2 -0.5 0.5 -0.5 0.3 0 0.5 0.2 0.5 0.5 0 0.3 -0.2 0.5 -0.5 0.5 -0.3 0 -0.5 -0.2 -0.5 -0.5z"/>
  <path d="M267 87.5 c0 -0.3 0.2 -0.5 0.5 -0.5 0.3 0 0.5 0.2 0.5 0.5 0 0.3 -0.2 0.5 -0.5 0.5 -0.3 0 -0.5 -0.2 -0.5 -0.5z"/>
  <path d="M266 85.5 c0 -0.3 0.2 -0.5 0.5 -0.5 0.3 0 0.5 0.2 0.5 0.5 0 0.3 -0.2 0.5 -0.5 0.5 -0.3 0 -0.5 -0.2 -0.5 -0.5z"/>
  <path d="M263.4 80.8 c-0.4 -0.7 -0.3 -0.8 0.4 -0.4 0.7 0.4 1.2 0.9 1.2 1.2 0 0.8 -0.9 0.4 -1.6 -0.8z"/>
 </g>
</svg>